<svg width="20" height="24" viewBox="0 0 20 24" fill="none" xmlns="http://www.w3.org/2000/svg">
<path d="M12.8265 9.96L9.99984 12.7867L7.15984 9.96L5.27984 11.84L8.11984 14.6667L5.29317 17.4933L7.17317 19.3733L9.99984 16.5467L12.8265 19.3733L14.7065 17.4933L11.8798 14.6667L14.7065 11.84L12.8265 9.96ZM14.6665 1.33333L13.3332 0H6.6665L5.33317 1.33333H0.666504V4H19.3332V1.33333H14.6665ZM1.99984 21.3333C1.99984 22.8 3.19984 24 4.6665 24H15.3332C16.7998 24 17.9998 22.8 17.9998 21.3333V5.33333H1.99984V21.3333ZM4.6665 8H15.3332V21.3333H4.6665V8Z" fill="#FB9E00"/>
</svg>
