<svg width="24" height="26" viewBox="0 0 24 26" fill="none" xmlns="http://www.w3.org/2000/svg">
<path d="M23.4942 21.1317L13.6684 10.55C14.6759 7.82002 14.1559 4.60002 12.1084 2.38335C9.61669 -0.299984 5.73835 -0.544984 2.97585 1.62502L7.12502 6.09335L5.58669 7.75002L1.43752 3.28168C-0.577481 6.24502 -0.349981 10.4217 2.14169 13.105C4.15669 15.275 7.09252 15.8467 9.60585 14.8317L19.475 25.46C19.8975 25.915 20.58 25.915 21.0025 25.46L23.4942 22.7767C23.9275 22.3333 23.9275 21.5867 23.4942 21.1317ZM20.2442 22.9983L9.99585 11.9617C9.33502 12.4867 8.59835 12.8017 7.82919 12.9184C6.35585 13.1517 4.80669 12.6733 3.68002 11.46C2.65085 10.3633 2.17419 8.89335 2.25002 7.44668L5.59752 11.0517L10.1909 6.10502L6.84335 2.50002C8.18668 2.41835 9.54085 2.93168 10.57 4.02835C11.74 5.28835 12.1842 7.02668 11.9134 8.64835C11.7834 9.46502 11.4584 10.235 10.96 10.9233L21.1975 21.9483L20.2442 22.9983Z" fill="#FB9E00"/>
</svg>
