<svg width="21" height="18" viewBox="0 0 21 18" fill="none" xmlns="http://www.w3.org/2000/svg">
<path fill-rule="evenodd" clip-rule="evenodd" d="M10.8232 11.8236C9.30734 11.8236 8.07775 10.5575 8.07775 8.99499C8.07775 8.20331 8.39232 7.48963 8.90101 6.97546C9.08988 6.78456 9.09279 6.47206 8.9075 6.27747C8.72222 6.08288 8.41891 6.07988 8.23004 6.27078C7.54543 6.96274 7.11963 7.92722 7.11963 8.99499C7.11963 11.1029 8.77835 12.8108 10.8232 12.8108C11.8586 12.8108 12.7956 12.3721 13.4673 11.6667C13.6526 11.4721 13.6497 11.1596 13.4608 10.9687C13.2719 10.7778 12.9686 10.7808 12.7833 10.9754C12.2843 11.4995 11.5908 11.8236 10.8232 11.8236Z" fill="#677185"/>
<path fill-rule="evenodd" clip-rule="evenodd" d="M3.2274 13.0815C4.7671 15.0295 7.21177 17.0305 10.7402 17.0305C13.1332 17.0305 15.0381 16.1076 16.499 14.9034C16.7034 14.7349 16.7356 14.4289 16.5708 14.2199C16.4061 14.0109 16.1069 13.978 15.9025 14.1465C14.5757 15.2401 12.8753 16.0583 10.7402 16.0583C7.60519 16.0583 5.40547 14.2908 3.96666 12.4703C3.2483 11.5614 2.72916 10.6501 2.38969 9.96521C2.22025 9.62336 2.09633 9.33948 2.01534 9.14265C1.99519 9.09367 1.97771 9.05011 1.96286 9.01243C1.99912 8.92513 2.05014 8.80624 2.11619 8.66132C2.26787 8.32856 2.49828 7.85988 2.81077 7.3223C3.4378 6.24361 4.38497 4.9055 5.67465 3.82718C5.87788 3.65727 5.90794 3.35103 5.7418 3.14318C5.57567 2.93534 5.27624 2.90459 5.07302 3.07451C3.66828 4.24902 2.65425 5.68914 1.9937 6.82549C1.66239 7.39543 1.41741 7.89347 1.25465 8.25054C1.17321 8.42919 1.11222 8.57288 1.07116 8.67301C1.05063 8.72309 1.03508 8.7623 1.02444 8.78958C1.01912 8.80322 1.01503 8.81389 1.01215 8.82143L1.00876 8.8304L1.00774 8.83311L1.00741 8.834L1.00728 8.83434C1.00723 8.83448 1.00718 8.8346 1.45145 9.00733C1.00373 9.17045 1.0038 9.17066 1.00388 9.1709L1.0041 9.17152L1.00471 9.17327L1.00668 9.17882C1.00831 9.18343 1.0106 9.18983 1.01355 9.19796C1.01945 9.21423 1.02799 9.23745 1.03922 9.26717C1.06167 9.32659 1.09487 9.41202 1.1392 9.51974C1.22781 9.73509 1.36105 10.04 1.54184 10.4048C1.90285 11.1331 2.45651 12.1061 3.2274 13.0815ZM1.45145 9.00733L1.00373 9.17045C0.965825 9.06164 0.967051 8.94258 1.00718 8.8346L1.45145 9.00733Z" fill="#677185"/>
<path fill-rule="evenodd" clip-rule="evenodd" d="M17.1105 13.3916C17.3044 13.5686 17.6024 13.5518 17.7761 13.3541C18.6878 12.3162 19.3419 11.2354 19.7679 10.4164C19.9813 10.0061 20.1385 9.65936 20.2429 9.41362C20.2952 9.2907 20.3343 9.19288 20.3607 9.12481C20.3739 9.09077 20.3839 9.06416 20.3908 9.04555C20.3942 9.03625 20.3969 9.02895 20.3988 9.02371L20.4011 9.01743L20.4018 9.01547L20.402 9.01479L20.4021 9.01452C20.4022 9.01441 20.4022 9.0143 19.9591 8.85061C20.3997 8.68003 20.3996 8.67983 20.3996 8.67961L20.3987 8.67731L20.3966 8.67187C20.3949 8.66735 20.3925 8.66103 20.3894 8.65298C20.3832 8.63689 20.3742 8.61387 20.3623 8.58438C20.3387 8.52541 20.3037 8.44052 20.2573 8.33342C20.1644 8.11929 20.0253 7.81591 19.8382 7.45295C19.4647 6.72819 18.897 5.7599 18.1198 4.78921C16.5701 2.85363 14.141 0.854868 10.7256 0.854868C9.1852 0.854868 7.84026 1.26342 6.68639 1.89156C6.45677 2.01656 6.37005 2.30761 6.49269 2.54164C6.61534 2.77567 6.90091 2.86406 7.13053 2.73906C8.16205 2.17753 9.35558 1.81568 10.7256 1.81568C13.7429 1.81568 15.9306 3.57458 17.3894 5.39667C18.1165 6.30482 18.651 7.21536 19.0036 7.89972C19.1797 8.24133 19.3097 8.52508 19.3951 8.72195C19.4167 8.77179 19.4354 8.81603 19.4513 8.8542C19.4315 8.90359 19.407 8.96311 19.3779 9.03174C19.2819 9.25751 19.1353 9.58119 18.935 9.96639C18.5335 10.7384 17.9206 11.7491 17.0737 12.7132C16.9001 12.9109 16.9165 13.2146 17.1105 13.3916ZM19.9591 8.85061L20.3997 8.68003C20.4398 8.78755 20.4407 8.90617 20.4022 9.0143L19.9591 8.85061Z" fill="#677185"/>
<path fill-rule="evenodd" clip-rule="evenodd" d="M13.7189 9.99065C13.964 10.0364 14.1961 9.85308 14.2374 9.58116C14.269 9.37266 14.287 9.15697 14.287 8.93455C14.287 6.80337 12.7299 5.07463 10.8082 5.07463C10.6077 5.07463 10.4133 5.09457 10.2254 5.12967C9.98033 5.17544 9.8151 5.43297 9.85635 5.7049C9.8976 5.97682 10.1297 6.16015 10.3748 6.11438C10.5174 6.08775 10.6617 6.0732 10.8082 6.0732C12.2327 6.0732 13.387 7.35469 13.387 8.93455C13.387 9.09703 13.3739 9.25717 13.3499 9.41541C13.3086 9.68734 13.4739 9.94488 13.7189 9.99065Z" fill="#677185"/>
<path fill-rule="evenodd" clip-rule="evenodd" d="M7.11963 8.99499C7.11963 11.1028 8.7774 12.8108 10.8232 12.8108C11.8596 12.8108 12.7957 12.3721 13.4673 11.6667C13.6526 11.4721 13.6497 11.1596 13.4608 10.9687C13.2719 10.7778 12.9686 10.7808 12.7833 10.9754C12.2843 11.4995 11.5916 11.8236 10.8232 11.8236C9.30655 11.8236 8.07775 10.5576 8.07775 8.99499C8.07775 8.20414 8.39237 7.48957 8.90101 6.97546C9.08988 6.78456 9.09279 6.47206 8.9075 6.27747C8.72222 6.08288 8.41891 6.07988 8.23004 6.27078C7.54538 6.9628 7.11963 7.9282 7.11963 8.99499Z" fill="#677185"/>
<path fill-rule="evenodd" clip-rule="evenodd" d="M18.9286 17.2414C19.1108 17.0537 19.1108 16.7493 18.9286 16.5616L3.47912 0.644026C3.29692 0.456308 3.00152 0.456308 2.81933 0.644026C2.63713 0.831743 2.63713 1.1361 2.81933 1.32381L18.2688 17.2414C18.451 17.4291 18.7464 17.4291 18.9286 17.2414Z" fill="#677185"/>
</svg>
