<svg width="20" height="16" viewBox="0 0 20 16" fill="none" xmlns="http://www.w3.org/2000/svg">
<path d="M2 14H18V2H2V14ZM14 4L16 6H12L14 4ZM16 10.25L14 12.25L12 10.25H16ZM4 10H8V9H5C4.45 9 4 8.55 4 8V5C4 4.45 4.45 4 5 4H6V3H8V4H10V6H6V7H9C9.55 7 10 7.45 10 8V11C10 11.55 9.55 12 9 12H8V13H6V12H4V10Z" fill="url(#paint0_linear_390_2265)"/>
<path d="M18 0H2C0.89 0 0.00999999 0.89 0.00999999 2L0 14C0 15.11 0.89 16 2 16H18C19.11 16 20 15.11 20 14V2C20 0.89 19.11 0 18 0ZM18 14H2V2H18V14Z" fill="#36E832"/>
<path d="M6 13H8V12H9C9.55 12 10 11.55 10 11V8C10 7.45 9.55 7 9 7H6V6H10V4H8V3H6V4H5C4.45 4 4 4.45 4 5V8C4 8.55 4.45 9 5 9H8V10H4V12H6V13Z" fill="#36E832"/>
<path d="M14 4L12 6H16L14 4Z" fill="#36E832"/>
<path d="M16 10.25H12L14 12.25L16 10.25Z" fill="#36E832"/>
<defs>
<linearGradient id="paint0_linear_390_2265" x1="10" y1="2" x2="10" y2="14" gradientUnits="userSpaceOnUse">
<stop stop-color="#E83274" stop-opacity="0.3"/>
<stop offset="1" stop-color="#E83274" stop-opacity="0"/>
</linearGradient>
</defs>
</svg>
