<svg width="29" height="29" viewBox="0 0 29 29" fill="none" xmlns="http://www.w3.org/2000/svg">
<g clip-path="url(#clip0_306_6202)">
<path d="M21.15 11.186V7.04999H17.014L14.1 4.13599L11.186 7.04999H7.04999V11.186L4.13599 14.1L7.04999 17.014V21.15H11.186L14.1 24.064L17.014 21.15H21.15V17.014L24.064 14.1L21.15 11.186ZM14.1 21.15C10.2107 21.15 7.04999 17.9892 7.04999 14.1C7.04999 10.2107 10.2107 7.04999 14.1 7.04999C17.9892 7.04999 21.15 10.2107 21.15 14.1C21.15 17.9892 17.9892 21.15 14.1 21.15Z" fill="url(#paint0_linear_306_6202)"/>
<path d="M23.5 10.2107V4.69998H17.9892L14.1 0.81073L10.2107 4.69998H4.69998V10.2107L0.81073 14.1L4.69998 17.9892V23.5H10.2107L14.1 27.3892L17.9892 23.5H23.5V17.9892L27.3892 14.1L23.5 10.2107ZM21.15 17.014V21.15H17.014L14.1 24.064L11.186 21.15H7.04998V17.014L4.13598 14.1L7.04998 11.186V7.04998H11.186L14.1 4.13598L17.014 7.04998H21.15V11.186L24.064 14.1L21.15 17.014ZM14.1 7.04998C10.2107 7.04998 7.04998 10.2107 7.04998 14.1C7.04998 17.9892 10.2107 21.15 14.1 21.15C17.9892 21.15 21.15 17.9892 21.15 14.1C21.15 10.2107 17.9892 7.04998 14.1 7.04998ZM14.1 18.8C11.5032 18.8 9.39998 16.6967 9.39998 14.1C9.39998 11.5032 11.5032 9.39998 14.1 9.39998C16.6967 9.39998 18.8 11.5032 18.8 14.1C18.8 16.6967 16.6967 18.8 14.1 18.8Z" fill="#FB9E00"/>
<path d="M14.1 17.0375C15.7223 17.0375 17.0375 15.7223 17.0375 14.1C17.0375 12.4776 15.7223 11.1625 14.1 11.1625C12.4776 11.1625 11.1625 12.4776 11.1625 14.1C11.1625 15.7223 12.4776 17.0375 14.1 17.0375Z" fill="#FB9E00"/>
</g>
<defs>
<linearGradient id="paint0_linear_306_6202" x1="14.1" y1="4.13599" x2="14.1" y2="24.064" gradientUnits="userSpaceOnUse">
<stop stop-color="#E83274" stop-opacity="0.3"/>
<stop offset="1" stop-color="#E83274" stop-opacity="0"/>
</linearGradient>
<clipPath id="clip0_306_6202">
<rect width="28.2" height="28.2" fill="white"/>
</clipPath>
</defs>
</svg>
