<svg width="20" height="28" viewBox="0 0 20 28" fill="none" xmlns="http://www.w3.org/2000/svg">
<path d="M12.5001 0.666992H2.50006C1.12506 0.666992 6.10352e-05 1.86699 6.10352e-05 3.33366V24.667C6.10352e-05 26.1337 1.12506 27.3337 2.50006 27.3337H17.5001C18.8751 27.3337 20.0001 26.1337 20.0001 24.667V8.66699L12.5001 0.666992ZM2.50006 24.667V3.33366H11.2501V8.66699H17.5001V24.667H2.50006ZM8.75006 23.3337H11.2501V22.0003H12.5001C13.1876 22.0003 13.7501 21.4003 13.7501 20.667V16.667C13.7501 15.9337 13.1876 15.3337 12.5001 15.3337H8.75006V14.0003H13.7501V11.3337H11.2501V10.0003H8.75006V11.3337H7.50006C6.81256 11.3337 6.25006 11.9337 6.25006 12.667V16.667C6.25006 17.4003 6.81256 18.0003 7.50006 18.0003H11.2501V19.3337H6.25006V22.0003H8.75006V23.3337Z" fill="#FB9E00"/>
</svg>
