<svg width="16" height="20" viewBox="0 0 16 20" fill="none" xmlns="http://www.w3.org/2000/svg">
<path d="M5.33398 7.14307H6.66732V15.7145H5.33398V7.14307Z" fill="black"/>
<path d="M9.33398 7.14307H10.6673V15.7145H9.33398V7.14307Z" fill="black"/>
<path d="M0 2.85693V4.2855H1.33333V18.5712C1.33333 18.9501 1.47381 19.3135 1.72386 19.5814C1.97391 19.8493 2.31304 19.9998 2.66667 19.9998H13.3333C13.687 19.9998 14.0261 19.8493 14.2761 19.5814C14.5262 19.3135 14.6667 18.9501 14.6667 18.5712V4.2855H16V2.85693H0ZM2.66667 18.5712V4.2855H13.3333V18.5712H2.66667Z" fill="black"/>
<path d="M5.33398 0H10.6673V1.42857H5.33398V0Z" fill="black"/>
</svg>
