<svg width="22" height="27" viewBox="0 0 22 27" fill="none" xmlns="http://www.w3.org/2000/svg">
<path d="M13.5317 3.19065L19.1667 10.1368V23.3245H2.83333V3.19065H13.5317ZM13.5317 0.314392H2.83333C1.55 0.314392 0.5 1.60871 0.5 3.19065V23.3245C0.5 24.9064 1.55 26.2008 2.83333 26.2008H19.1667C20.45 26.2008 21.5 24.9064 21.5 23.3245V10.1368C21.5 9.37462 21.255 8.64117 20.8117 8.10906L15.1767 1.16289C14.745 0.6164 14.15 0.314392 13.5317 0.314392ZM5.16667 17.572H16.8333V20.4482H5.16667V17.572ZM5.16667 11.8194H16.8333V14.6957H5.16667V11.8194ZM5.16667 6.06692H13.3333V8.94318H5.16667V6.06692Z" fill="#FB9E00"/>
</svg>
